<svg width="26" height="25" viewBox="0 0 26 25" fill="none" xmlns="http://www.w3.org/2000/svg">
<path d="M25.6709 12.5156C25.6709 12.327 25.617 12.1727 25.5093 12.0355L16.4086 0.375708C16.2068 0.0842113 16.0586 0.015625 15.9105 0.015625C15.6144 0.015625 15.3855 0.30712 15.3855 0.667202C15.3855 0.855812 15.4259 1.02729 15.5336 1.14732L20.9052 8.00604L24.1228 11.9669L21.1744 11.8641H1.18248C0.899763 11.8641 0.670898 12.1384 0.670898 12.5156C0.670898 12.8929 0.899763 13.1672 1.18248 13.1672H21.1744L24.1228 13.0815L20.9052 17.0252L15.5336 23.884C15.4393 24.0039 15.3855 24.1927 15.3855 24.3812C15.3855 24.7242 15.6144 25.0156 15.9105 25.0156C16.0586 25.0156 16.1797 24.9471 16.2875 24.8098L25.5093 12.9958C25.617 12.8586 25.6709 12.7043 25.6709 12.5156Z" fill="white"/>
</svg>
