<svg width="25" height="24" viewBox="0 0 25 24" fill="none" xmlns="http://www.w3.org/2000/svg">
<g clip-path="url(#clip0_2_240)">
<path d="M23.9402 14.9019C22.3368 21.3339 15.8202 25.2439 9.39737 23.6405C2.96518 22.0371 -0.944755 15.5208 0.658652 9.09805C2.26196 2.66605 8.76915 -1.24389 15.2013 0.359519C21.6242 1.95346 25.5436 8.46983 23.9402 14.9019Z" fill="url(#paint0_linear_2_240)"/>
<path d="M18.0126 10.5047C18.247 8.91099 17.0376 8.04849 15.3689 7.47661L15.9126 5.31099L14.6001 4.98286L14.0751 7.09224C13.7283 7.00786 13.372 6.92349 13.0158 6.84849L13.5408 4.72974L12.2283 4.40161L11.6939 6.55786C11.4033 6.49224 11.122 6.42661 10.8501 6.36099V6.35161L9.0314 5.90161L8.68452 7.30786C8.68452 7.30786 9.65952 7.53286 9.64077 7.54224C10.1751 7.67349 10.2689 8.02974 10.2501 8.31099L9.6314 10.7766C9.6689 10.786 9.71577 10.7954 9.77202 10.8235C9.72515 10.8141 9.67827 10.8047 9.6314 10.786L8.7689 14.236C8.70327 14.3954 8.53452 14.6391 8.1689 14.5454C8.17827 14.5641 7.21265 14.311 7.21265 14.311L6.5564 15.8204L8.27202 16.2516C8.59077 16.336 8.90015 16.411 9.20952 16.4954L8.66577 18.6797L9.97827 19.0079L10.522 16.8422C10.8783 16.936 11.2345 17.0297 11.572 17.1141L11.0376 19.2704L12.3501 19.5985L12.8939 17.4141C15.1439 17.836 16.8314 17.6672 17.5345 15.6329C18.1064 14.0016 17.5064 13.0547 16.3251 12.436C17.197 12.2391 17.8439 11.6672 18.0126 10.5047ZM15.0033 14.7235C14.6001 16.3547 11.8439 15.4735 10.9533 15.2485L11.6751 12.3516C12.5658 12.5766 15.4345 13.0172 15.0033 14.7235ZM15.4158 10.4766C15.0408 11.9672 12.7533 11.2079 12.0126 11.0204L12.6689 8.39536C13.4095 8.58286 15.8001 8.92974 15.4158 10.4766Z" fill="white"/>
</g>
<defs>
<linearGradient id="paint0_linear_2_240" x1="12.2926" y1="-0.00575999" x2="12.2926" y2="23.9976" gradientUnits="userSpaceOnUse">
<stop stop-color="#F9AA4B"/>
<stop offset="1" stop-color="#F7931A"/>
</linearGradient>
<clipPath id="clip0_2_240">
<rect width="24" height="24" fill="white" transform="translate(0.299133)"/>
</clipPath>
</defs>
</svg>
