<svg width="40" height="38" viewBox="0 0 40 38" fill="none" xmlns="http://www.w3.org/2000/svg">
<path d="M39.9061 19.1163C39.9061 8.55706 31.178 -0.00244141 20.413 -0.00244141C9.64307 -6.64061e-05 0.915039 8.55706 0.915039 19.1187C0.915039 28.6591 8.04463 36.5678 17.3623 38.0023V24.6429H12.416V19.1187H17.3672V14.9031C17.3672 10.1127 20.279 7.46693 24.7307 7.46693C26.8652 7.46693 29.0947 7.83981 29.0947 7.83981V12.5423H26.6362C24.2166 12.5423 23.4612 14.0172 23.4612 15.5301V19.1163H28.8657L28.0031 24.6406H23.4588V37.9999C32.7765 36.5654 39.9061 28.6567 39.9061 19.1163Z" fill="white"/>
</svg>
