<svg width="40" height="38" viewBox="0 0 40 38" fill="none" xmlns="http://www.w3.org/2000/svg">
<path d="M24.3707 19.4123C24.3707 17.3586 22.6486 15.6875 20.532 15.6875C18.4157 15.6875 16.6936 17.3586 16.6936 19.4123C16.6936 21.4665 18.4157 23.1373 20.532 23.1373C22.6486 23.1373 24.3707 21.4665 24.3707 19.4123ZM30.0736 0.0227051H10.5917C5.22422 0.0227051 0.857422 4.26054 0.857422 9.46939V12.1015H15.1814C16.6929 11.0567 18.5389 10.4394 20.532 10.4394C22.5252 10.4394 24.3714 11.0567 25.8829 12.1015H39.8079V9.46939C39.8079 4.2605 35.4411 0.0227051 30.0736 0.0227051ZM34.0159 9.00723C34.0159 9.58449 33.5293 10.0569 32.9343 10.0569H29.5924C28.9974 10.0569 28.5108 9.58449 28.5108 9.00723V5.76386C28.5108 5.18664 28.9974 4.71422 29.5924 4.71422H32.9343C33.5293 4.71422 34.0159 5.18656 34.0159 5.76386V9.00723ZM29.7786 19.4123C29.7786 24.3605 25.6304 28.3853 20.532 28.3853C15.4335 28.3853 11.2856 24.3605 11.2856 19.4123C11.2856 18.0501 11.6018 16.7582 12.1641 15.6002H0.857422V28.5302C0.857422 33.7394 5.22422 37.9769 10.5917 37.9769H30.0737C35.4411 37.9769 39.8079 33.7394 39.8079 28.5302V15.6002H28.9001C29.4624 16.7582 29.7786 18.0501 29.7786 19.4123Z" fill="white"/>
</svg>
