<svg width="35" height="34" viewBox="0 0 35 34" fill="none" xmlns="http://www.w3.org/2000/svg">
<path d="M17.4931 0.375C8.07397 0.375 0.436646 7.81914 0.436646 17C0.436646 26.1809 8.07397 33.625 17.4931 33.625C26.9122 33.625 34.5495 26.1809 34.5495 17C34.5495 7.81914 26.9122 0.375 17.4931 0.375ZM25.6901 12.9068C25.7015 13.0813 25.7015 13.2631 25.7015 13.4412C25.7015 18.8889 21.445 25.1641 13.6668 25.1641C11.2682 25.1641 9.04482 24.485 7.17166 23.316C7.51431 23.3531 7.84173 23.368 8.192 23.368C10.1718 23.368 11.9916 22.7148 13.4422 21.609C11.5842 21.5719 10.0233 20.3844 9.49027 18.7516C10.1413 18.8443 10.7276 18.8443 11.3977 18.6773C10.441 18.4879 9.58116 17.9815 8.96417 17.2441C8.34717 16.5068 8.0111 15.5839 8.01306 14.6324V14.5805C8.57272 14.8885 9.23137 15.0777 9.92049 15.1037C9.34118 14.7274 8.8661 14.2176 8.53736 13.6194C8.20861 13.0213 8.03637 12.3534 8.0359 11.6748C8.0359 10.9066 8.24149 10.2053 8.61079 9.59668C9.67264 10.8708 10.9977 11.9128 12.4998 12.6551C14.0018 13.3974 15.6474 13.8233 17.3294 13.9051C16.7316 11.1033 18.8789 8.83594 21.4602 8.83594C22.6786 8.83594 23.775 9.3332 24.5479 10.1348C25.5035 9.96035 26.4173 9.61152 27.232 9.14394C26.916 10.0977 26.2536 10.9029 25.3741 11.4113C26.2269 11.3223 27.0493 11.0922 27.8107 10.7693C27.2358 11.5932 26.5163 12.3242 25.6901 12.9068Z" fill="white"/>
</svg>
