<svg width="809" height="851" viewBox="0 0 809 851" fill="none" xmlns="http://www.w3.org/2000/svg">
<g opacity="0.7">
<path d="M408.46 166.822C581.528 366.756 730.49 333.434 783.337 291.781C1033.25 -15.15 669.312 -140.109 44.5166 -208.056C-114.806 -253.353 192.124 -83.0965 408.46 166.822Z" fill="#5E91F2"/>
<path d="M443.46 694.269C616.528 894.203 765.49 860.881 818.337 819.228C1068.25 512.297 704.312 387.338 79.5166 319.392C-79.8061 274.094 227.124 444.351 443.46 694.269Z" fill="#0917BE"/>
<path d="M475.753 499.02C648.821 698.955 797.783 665.632 850.63 623.979C1100.55 317.049 736.605 192.09 111.81 124.143C-47.5129 78.8456 259.418 249.102 475.753 499.02Z" fill="#5E91F2"/>
<path d="M488.092 277.358C661.16 477.293 810.122 443.97 862.969 402.317C1112.89 95.3869 748.944 -29.5722 124.149 -97.5186C-35.1741 -142.816 271.757 27.4404 488.092 277.358Z" fill="#0917BE"/>
</g>
</svg>
